<svg height="200px" width="200px" version="1.1" id="Layer_1" xmlns="http://www.w3.org/2000/svg" xmlns:xlink="http://www.w3.org/1999/xlink" viewBox="0 0 511.988 511.988" xml:space="preserve" fill="#000000"><g id="SVGRepo_bgCarrier" stroke-width="0"></g><g id="SVGRepo_tracerCarrier" stroke-linecap="round" stroke-linejoin="round"></g><g id="SVGRepo_iconCarrier"> <path style="fill:#FFCE54;" d="M426.662,255.997c0,94.254-76.42,170.659-170.668,170.659s-170.66-76.404-170.66-170.659 c0-94.256,76.412-170.66,170.66-170.66S426.662,161.742,426.662,255.997z"></path> <g style="opacity:0.2;"> <path style="fill:#FFFFFF;" d="M255.994,85.337c-3.578,0-7.133,0.117-10.664,0.336c89.287,5.508,160.004,79.654,160.004,170.324 c0,90.662-70.717,164.816-160.004,170.315c3.531,0.219,7.086,0.344,10.664,0.344c94.248,0,170.668-76.404,170.668-170.659 S350.242,85.337,255.994,85.337z"></path> </g> <g> <path style="fill:#CCD1D9;" d="M32.007,96.001v319.984l0,0c0,5.891,4.773,10.671,10.664,10.671s10.664-4.78,10.664-10.671l0,0 V96.001H32.007z"></path> <path style="fill:#CCD1D9;" d="M447.989,152.445v263.54c0,5.891,4.781,10.671,10.672,10.671c5.89,0,10.671-4.78,10.671-10.671l0,0 v-263.54L447.989,152.445L447.989,152.445z"></path> </g> <path style="fill:#E6E9ED;" d="M85.334,96.001c0-2.727-1.039-5.461-3.125-7.547c-4.164-4.164-10.914-4.164-15.086,0 c-2.078,2.086-3.125,4.82-3.117,7.555v53.327H53.335V96.001l0,0c0-2.727-1.039-5.461-3.125-7.539 c-4.164-4.172-10.914-4.172-15.086,0c-2.078,2.078-3.125,4.812-3.117,7.547v53.327H21.335V96.001l0,0 c0-2.727-1.039-5.461-3.124-7.539c-4.164-4.172-10.914-4.172-15.086,0c-2.078,2.078-3.117,4.812-3.117,7.539H0v53.334h0.008v47.999 c0,0,21.327,16,42.663,16c21.335,0,42.663-16,42.663-16v-47.999l0,0V96.001L85.334,96.001z"></path> <path style="fill:#F6BB42;" d="M362.664,255.997c0,58.897-47.766,106.661-106.67,106.661c-58.905,0-106.662-47.764-106.662-106.661 c0-58.905,47.757-106.662,106.662-106.662C314.898,149.336,362.664,197.092,362.664,255.997z"></path> <g style="opacity:0.1;"> <path d="M255.994,149.336c-3.594,0-7.156,0.18-10.664,0.523c53.913,5.359,96.006,50.827,96.006,106.138 c0,55.303-42.093,100.77-96.006,106.129c3.508,0.344,7.07,0.531,10.664,0.531c58.904,0,106.67-47.764,106.67-106.661 C362.664,197.092,314.898,149.336,255.994,149.336z"></path> </g> <path style="fill:#E6E9ED;" d="M511.988,298.66h-63.999V85.337c0,0,63.999,26,63.999,106.662 C511.988,272.66,511.988,298.66,511.988,298.66z"></path> </g></svg>