<svg version="1.1" id="Layer_1" xmlns="http://www.w3.org/2000/svg" xmlns:xlink="http://www.w3.org/1999/xlink" viewBox="0 0 511.993 511.993" xml:space="preserve" fill="#000000"><g id="SVGRepo_bgCarrier" stroke-width="0"></g><g id="SVGRepo_tracerCarrier" stroke-linecap="round" stroke-linejoin="round"></g><g id="SVGRepo_iconCarrier"> <rect x="256.595" y="269.734" transform="matrix(-0.7071 -0.7071 0.7071 -0.7071 297.1609 695.3954)" style="fill:#AAA9AF;" width="72.013" height="32.839"></rect> <path style="fill:#E3744E;" d="M432.105,505.551l-165.591-165.59l79.886-79.886l165.59,165.59L432.105,505.551z"></path> <rect x="292.134" y="334.602" transform="matrix(0.7071 0.7071 -0.7071 0.7071 376.4298 -183.0911)" style="fill:#E05323;" width="234.182" height="56.488"></rect> <path style="fill:#DDDCDF;" d="M217.081,290.7L39.205,112.823c-8.391-8.391-11.292-20.605-7.569-31.874 c3.723-11.267,13.329-19.348,25.069-21.088c48.889-7.249,98.948,9.294,133.9,44.245l106.535,106.535L217.081,290.7z"></path> <path style="fill:#CCCCCF;" d="M190.606,104.106c-32.909-32.909-79.214-49.49-125.324-45.264L257.11,250.671l40.03-40.029 L190.606,104.106z"></path> <rect x="230.28" y="186.444" transform="matrix(-0.7071 -0.7071 0.7071 -0.7071 236.5232 620.1509)" style="fill:#AAA9AF;" width="32.839" height="149.291"></rect> <path style="fill:#DDDCDF;" d="M480.363,101.68l-86.788,86.788l-9.274-9.273l86.788-86.79l-23.221-23.22l-86.788,86.79l-9.274-9.274 l86.788-86.788l-23.219-23.221l-86.788,86.788l-9.274-9.274l86.788-86.788l-23.22-23.22L287.868,99.21 c-16.12,16.121-24.999,37.554-24.999,60.353s8.878,44.231,24.999,60.353c16.639,16.639,38.496,24.959,60.351,24.959 c21.857,0,43.714-8.32,60.353-24.959l95.013-95.014L480.363,101.68z"></path> <path style="fill:#CCCCCF;" d="M480.363,101.68l-86.788,86.788l-9.274-9.273l86.788-86.79l-23.221-23.22l-86.788,86.79l-4.637-4.637 c0,0-54.093,54.093-68.577,68.577c16.639,16.639,38.496,24.959,60.351,24.959c21.857,0,43.714-8.32,60.353-24.959l95.013-95.014 L480.363,101.68z"></path> <rect x="66.251" y="267.957" transform="matrix(-0.7071 -0.7071 0.7071 -0.7071 -62.7439 744.1075)" style="fill:#E3744E;" width="112.973" height="234.182"></rect> <rect x="114.458" y="287.937" transform="matrix(-0.7071 -0.7071 0.7071 -0.7071 -42.7904 792.3324)" style="fill:#E05323;" width="56.488" height="234.182"></rect> </g></svg>