<svg version="1.1" id="Layer_1" xmlns="http://www.w3.org/2000/svg" xmlns:xlink="http://www.w3.org/1999/xlink" viewBox="0 0 512 512" xml:space="preserve" fill="#000000"><g id="SVGRepo_bgCarrier" stroke-width="0"></g><g id="SVGRepo_tracerCarrier" stroke-linecap="round" stroke-linejoin="round"></g><g id="SVGRepo_iconCarrier"> <rect x="239.304" y="322.783" style="fill:#AB7315;" width="33.391" height="172.911"></rect> <g> <rect x="239.304" style="fill:#744E12;" width="33.391" height="33.391"></rect> <rect x="239.304" y="122.435" style="fill:#744E12;" width="33.391" height="155.826"></rect> <rect x="34.498" y="406.884" style="fill:#744E12;" width="101.899" height="33.391"></rect> <rect x="17.802" y="379.503" style="fill:#744E12;" width="33.391" height="132.497"></rect> <rect x="119.708" y="379.503" style="fill:#744E12;" width="33.391" height="132.497"></rect> </g> <polygon style="fill:#AB7315;" points="170.564,394.991 0,394.991 0,203.872 33.391,203.872 33.391,361.6 170.564,361.6 "></polygon> <g> <rect x="375.597" y="406.884" style="fill:#744E12;" width="101.899" height="33.391"></rect> <rect x="460.811" y="379.503" style="fill:#744E12;" width="33.391" height="132.497"></rect> <rect x="358.901" y="379.503" style="fill:#744E12;" width="33.391" height="132.497"></rect> </g> <polygon style="fill:#AB7315;" points="341.436,394.991 512,394.991 512,203.872 478.609,203.872 478.609,361.6 341.436,361.6 "></polygon> <path style="fill:#744E12;" d="M400.791,339.478H111.209v-61.217h289.583V339.478z"></path> <rect x="84.302" y="261.565" style="fill:#AB7315;" width="343.407" height="33.391"></rect> <rect x="197.632" y="478.609" style="fill:#744E12;" width="116.725" height="33.391"></rect> <path style="fill:#E3744E;" d="M256,25.131c-103.826,0-196.307,41.272-256,105.563h512C452.307,66.402,359.826,25.131,256,25.131z"></path> <path style="fill:#E05323;" d="M256,25.131c0,19.39,0,105.563,0,105.563h256C452.307,66.402,359.826,25.131,256,25.131z"></path> <path style="fill:#F5DC49;" d="M256,25.131c-99.061,39.425-123.548,105.563-123.548,105.563h247.096 C379.548,130.695,355.061,64.557,256,25.131z"></path> <path style="fill:#ECAE44;" d="M256,25.131c0,43.877,0,105.563,0,105.563h123.548C379.548,130.695,355.061,64.557,256,25.131z"></path> </g></svg>