<svg version="1.1" xmlns="http://www.w3.org/2000/svg" xmlns:xlink="http://www.w3.org/1999/xlink" x="0px" y="0px" viewBox="0 0 256 256" enable-background="new 0 0 256 256" xml:space="preserve"><g><g><g><path fill="#FFFFFF" data-title="Layer 0" xs="0" d="M133.6,10.1c-5.2,0.8-10.6,3.6-14.5,7.6c-5.1,5.1-7.5,10.9-7.5,18.2c0,7.1,2.5,13.1,7.6,18.2c5,5,11.2,7.5,18.4,7.5c11.4,0,21-7.2,24.7-18.5c1.2-3.7,1.2-10.8-0.1-14.8c-1.5-4.5-3.2-7.3-6.6-10.6c-3.4-3.4-6.8-5.5-10.8-6.6C142,10.3,136,9.8,133.6,10.1z M144.6,21.1c3.1,1.6,6.1,4.7,7.7,7.9c1,1.9,1.2,3,1.2,6.7c0,3.8-0.2,4.8-1.2,7c-5.9,12.6-23.9,12.6-29.9-0.1c-1-2.2-1.2-3.2-1.2-6.7c0-3.5,0.2-4.6,1.2-6.7c1.6-3.3,3.3-5.3,6.2-7.2c3.2-2.1,4.8-2.4,9.4-2.4C141.3,19.8,142.3,20,144.6,21.1z"/><path fill="#FFFFFF" data-title="Layer 1" xs="1" d="M110.7,62.9c-1.4,0.5-3.7,1.5-5.2,2.4c-2.3,1.4-27.5,22.4-33.7,28.1c-3.8,3.5-4.1,4.6-8.4,27.5c-2.2,11.4-3.9,21.6-3.9,22.7c0,4.8,2.7,9.3,7,11.4c3.4,1.7,8.4,1.7,11.8,0c2.7-1.3,4.9-3.7,5.7-6.2c0.3-0.9,2.2-9.3,4.3-18.6l3.7-17.1l3.5-2.7c1.9-1.5,3.6-2.7,3.7-2.7c0.1,0-0.8,5.4-2.2,11.9c-2.2,10.5-2.5,12.6-2.4,17.2v5.3l-6.1,22.1l-6.1,22.2l-11.1,16c-13,18.7-14.7,21.4-15.7,24.7c-1,3.1-0.8,8.4,0.5,10.9c1.1,2.3,4.1,5.1,6.7,6.5c6.5,3.4,13,1.1,19.9-6.9c5-5.7,24.7-32.4,26.7-36c1.4-2.7,3.1-6.9,8.2-20.3c0.3-0.7,0.5-0.6,1.4,0.9c2.8,4.6,25.8,40,30.4,46.8c5.8,8.6,10,13.1,13.8,15c2.3,1.2,3,1.3,6.7,1.3c3.3,0,4.6-0.2,6.5-1.1c3.6-1.6,6-3.9,7.6-7.1c1.2-2.4,1.4-3.3,1.4-6.4c0-3.8-0.8-7.2-2.5-10.7c-0.6-1.2-11.2-18.6-23.6-38.8c-12.4-20.2-22.6-37.1-22.7-37.6c-0.2-1.1,3.6-18.6,4-18.6c0.1,0,0.9,1,1.7,2.1c2.4,3.6,7.1,6.2,19.1,10.6c3.7,1.3,10.4,3.9,15,5.6c7.7,2.9,8.6,3.1,12,3.1c4.7,0,6.6-0.6,9.2-3.2c4.9-4.9,4.3-12.8-1.2-18.1c-2-2-3.4-2.6-24.4-11.3l-10.4-4.3l-7.2-15.9c-4-8.8-7.9-17.4-8.7-19.1c-1.9-4.1-6.8-9.2-10.8-11.1c-2.8-1.3-2.8-1.3-12.2-1.4C114.6,62,112.9,62.1,110.7,62.9z M130.8,72.1c2.5,1.2,6,5.1,7.1,8.2c1.8,4.6,1.5,6.2-5.1,35.6c-3.4,14.9-6,27.9-6,28.9c0,1.5,3.7,7.8,23.3,39.7c12.8,20.9,23.8,39,24.5,40.3c3,6,1.7,10.2-3.7,11.4c-3.5,0.7-6.9-2.4-14.1-13.1c-9.6-14.3-48.9-75.4-50.7-78.9c-1.8-3.5-2.5-7-2.2-10.1c0.2-1.4,1.8-10.1,3.8-19.3c1.9-9.2,3.5-17.7,3.5-18.8c0-1.6-0.3-2.4-1.1-3.2c-1.3-1.3-3-1.8-4.5-1.4c-1.3,0.3-20.5,15-21.4,16.4c-0.4,0.5-2.5,9.3-4.8,19.5c-4.3,19.5-4.4,19.8-6.9,19.8c-2.1,0-3.2-1.2-3.2-3.6c0-2.1,6.6-37.8,7.4-40.6c0.4-1.2,4-4.5,15.8-14.5c8.4-7.2,16.2-13.6,17.3-14.4c3.2-2.2,5.2-2.6,12.6-2.6C127.8,71.3,129.3,71.4,130.8,72.1z M155.2,116.7c0.6,0.6,6.9,3.4,14.2,6.4c7.2,3,14.7,6,16.5,6.8c4.3,1.8,5.8,3.2,5.6,5.4c-0.1,1.6-0.2,1.7-2.3,1.8c-1.6,0.1-3.3-0.3-7.2-1.8c-2.7-1.1-9-3.4-14-5.1c-4.9-1.8-10.8-4.2-13.2-5.3l-4.2-2l-3.6-5.4l-3.6-5.4l0.6-2.6c0.3-1.4,1-4.4,1.5-6.6l0.9-4.1l3.9,8.4C152.4,112,154.6,116.2,155.2,116.7z M106.5,162.7l5.1,8l-4.5,11.8c-2.5,6.5-5.1,12.9-5.8,14.3c-1.8,3.5-23.8,32.8-27.2,36.3c-3.9,3.9-6.1,4.3-8.7,1.7c-1.7-1.6-1.6-3.6,0.1-6.7c0.8-1.4,6.8-10.4,13.4-20c9.8-14.1,12.2-17.9,12.9-20.2c0.5-1.6,2.7-9.6,4.9-18c2.3-8.4,4.3-15.1,4.4-15.1C101.3,154.7,103.7,158.3,106.5,162.7z"/></g></g></g></svg>